<?xml version="1.0" standalone="no"?><!DOCTYPE svg PUBLIC "-//W3C//DTD SVG 1.1//EN" "http://www.w3.org/Graphics/SVG/1.1/DTD/svg11.dtd"><svg t="1564470933900" class="icon" viewBox="0 0 1024 1024" version="1.1" xmlns="http://www.w3.org/2000/svg" p-id="1976" xmlns:xlink="http://www.w3.org/1999/xlink" width="200" height="200"><defs><style type="text/css"></style></defs><path d="M135.483 671.223l364.903-364.822c25.478-26.363 56.664-39.545 93.557-39.545 34.32 0 63.416 11.896 87.287 35.767 23.791 23.872 35.767 52.967 35.767 87.287 0 36.812-13.181 67.997-39.545 93.557l-257.441 257.441c-4.179 4.179-8.842 6.269-13.824 6.269-6.752 0-16.557-6.43-29.578-19.45-12.94-12.94-19.45-22.826-19.45-29.497 0-5.063 2.09-9.645 6.269-13.824l257.522-257.441c10.448-11.332 15.673-23.631 15.673-37.053 0-12.137-4.019-22.183-11.976-30.141-7.877-7.957-17.924-11.896-30.141-11.896-14.227 0-26.765 4.983-37.615 15.03l-364.822 364.822c-26.443 26.363-39.625 56.745-39.625 91.065 0 26.765 8.842 48.949 26.443 66.55 17.522 17.603 39.705 26.363 66.55 26.363 34.32 0 64.622-13.181 90.984-39.545l487.314-487.877c31.828-31.828 47.743-69.685 47.743-113.65 0-44.367-15.271-82.304-45.894-113.65-30.543-31.427-67.997-47.1-112.364-47.1-42.679 0-80.617 16.075-113.65 48.306l-380.496 381.139c-4.179 4.26-9.002 6.35-14.468 6.35-6.671 0-16.477-6.43-29.176-19.209-12.78-12.78-19.209-22.505-19.209-29.176 0-5.063 2.09-9.645 6.269-13.824l379.933-380.496c48.144-47.341 105.292-70.972 171.44-70.972 66.55 0 122.813 23.228 168.868 69.685 46.055 46.457 69.123 102.961 69.123 169.511 0 65.345-23.631 122.09-70.972 170.234l-487.877 487.234c-41.875 41.875-91.065 62.773-147.569 62.773-49.028 0-90.02-16.477-123.135-49.592-33.034-33.034-49.592-74.106-49.592-123.054 0-57.388 20.977-106.497 62.773-147.569l0 0z" p-id="1977"></path></svg>